# xmcd
#
# Track frame offsets: 
#        150
#        21781
#        48902
#        73482
#        102826
#        127947
#        144363
#        170221
#        218198
#        236684
#        247577
#        278732
#
# Disc length: 4001 seconds
#
# Revision: 0
# Processed by: cddbd v1.4PL0 Copyright (c) Steve Scherf et al.
# Submitted via: ExactAudioCopy v0.90b4
#
DISCID=a90f9f0c
DTITLE=Van Morrison - Berkeley 1992 april 17, disc 2
DYEAR=1992
DGENRE=Celtic
TTITLE0=Youth Of A 1000 Summers
TTITLE1=A Town Called Paradise
TTITLE2=Did Ye Get Healed ?
TTITLE3=It's All In The Game > Make It Real One More Time
TTITLE4=Vanlose Stairway > Trans-Euro Train
TTITLE5=Why Must I Always Explain ?
TTITLE6=I'm Not Feeling It Anymore
TTITLE7=See Me Through > Soldier Of Fortune
TTITLE8=Whenever God Shines His Light
TTITLE9=Enlightenment
TTITLE10=In The Garden > Daring Night
TTITLE11=It's All Over Now Baby Blue
EXTD=
EXTT0=
EXTT1=
EXTT2=
EXTT3=
EXTT4=
EXTT5=
EXTT6=
EXTT7=
EXTT8=
EXTT9=
EXTT10=
EXTT11=
PLAYORDER=
